<svg viewBox="0 0 400 100" xmlns="http://www.w3.org/2000/svg">
  <rect width="400" height="100" fill="#FAFAF8"/>
  <!-- sync icon -->
  <g transform="translate(30,30)">
    <circle cx="20" cy="20" r="22" fill="#0B1220"/>
    <path d="M12 20a8 8 0 0 1 8-8h5m0 0l-3-3m3 3l-3 3M28 20a8 8 0 0 1-8 8h-5m0 0l3 3m-3-3l3-3"
      stroke="#E8A33D" stroke-width="2" fill="none" stroke-linecap="round" stroke-linejoin="round" transform="translate(0,0)"/>
  </g>
  <!-- pipeline icon -->
  <g transform="translate(130,30)">
    <circle cx="20" cy="20" r="22" fill="#0B1220"/>
    <rect x="10" y="17" width="6" height="6" fill="#E8A33D"/>
    <rect x="18" y="17" width="6" height="6" fill="#E8A33D" opacity="0.6"/>
    <rect x="26" y="17" width="6" height="6" fill="#E8A33D" opacity="0.3"/>
  </g>
  <!-- alert icon -->
  <g transform="translate(230,30)">
    <circle cx="20" cy="20" r="22" fill="#0B1220"/>
    <path d="M20 10 L28 28 L12 28 Z" fill="none" stroke="#E8A33D" stroke-width="2" stroke-linejoin="round"/>
    <circle cx="20" cy="24" r="1.2" fill="#E8A33D"/>
    <line x1="20" y1="17" x2="20" y2="21" stroke="#E8A33D" stroke-width="1.6"/>
  </g>
  <!-- dashboard icon -->
  <g transform="translate(330,30)">
    <circle cx="20" cy="20" r="22" fill="#0B1220"/>
    <rect x="10" y="10" width="9" height="9" fill="none" stroke="#E8A33D" stroke-width="1.6"/>
    <rect x="21" y="10" width="9" height="9" fill="#E8A33D" opacity="0.5"/>
    <rect x="10" y="21" width="9" height="9" fill="#E8A33D" opacity="0.5"/>
    <rect x="21" y="21" width="9" height="9" fill="none" stroke="#E8A33D" stroke-width="1.6"/>
  </g>
</svg>
